<?xml version="1.0" encoding="UTF-8" standalone="no"?>
<!-- Created with Inkscape (http://www.inkscape.org/) -->

<svg
   xmlns:dc="http://purl.org/dc/elements/1.1/"
   xmlns:cc="http://creativecommons.org/ns#"
   xmlns:rdf="http://www.w3.org/1999/02/22-rdf-syntax-ns#"
   xmlns:svg="http://www.w3.org/2000/svg"
   xmlns="http://www.w3.org/2000/svg"
   version="1.2"
   width="485.69482"
   height="300.052"
   id="svg2">
  <metadata
     id="metadata30">
    <rdf:RDF>
      <cc:Work
         rdf:about="">
        <dc:format>image/svg+xml</dc:format>
        <dc:type
           rdf:resource="http://purl.org/dc/dcmitype/StillImage" />
        <dc:title></dc:title>
      </cc:Work>
    </rdf:RDF>
  </metadata>
  <defs
     id="defs5">
    <marker
       refX="0"
       refY="0"
       orient="auto"
       id="Arrow1Lend"
       style="overflow:visible">
      <path
         d="M 0,0 5,-5 -12.5,0 5,5 0,0 z"
         transform="matrix(-0.8,0,0,-0.8,-10,0)"
         id="path7105"
         style="fill-rule:evenodd;stroke:#000000;stroke-width:1pt;marker-start:none" />
    </marker>
    <marker
       refX="0"
       refY="0"
       orient="auto"
       id="Arrow1Lstart"
       style="overflow:visible">
      <path
         d="M 0,0 5,-5 -12.5,0 5,5 0,0 z"
         transform="matrix(0.8,0,0,0.8,10,0)"
         id="path7102"
         style="fill-rule:evenodd;stroke:#000000;stroke-width:1pt;marker-start:none" />
    </marker>
    <marker
       refX="0"
       refY="0"
       orient="auto"
       id="Arrow1Mend"
       style="overflow:visible">
      <path
         d="M 0,0 5,-5 -12.5,0 5,5 0,0 z"
         transform="matrix(-0.4,0,0,-0.4,-4,0)"
         id="path8323"
         style="fill-rule:evenodd;stroke:#000000;stroke-width:1pt;marker-start:none" />
    </marker>
    <marker
       refX="0"
       refY="0"
       orient="auto"
       id="Arrow1Mstart"
       style="overflow:visible">
      <path
         d="M 0,0 5,-5 -12.5,0 5,5 0,0 z"
         transform="matrix(0.4,0,0,0.4,4,0)"
         id="path8320"
         style="fill-rule:evenodd;stroke:#000000;stroke-width:1pt;marker-start:none" />
    </marker>
  </defs>
  <rect
     width="403.2258"
     height="268.8172"
     x="26.881727"
     y="31.1819"
     id="rect3331"
     style="fill:#ffffff;fill-opacity:1;fill-rule:nonzero;stroke:none" />
  <path
     d="m 309.13976,165.59049 c 0.0205,44.53307 -36.09152,80.64516 -80.64516,80.64516 -44.5536,0 -80.6657,-36.11209 -80.64512,-80.64516 -0.0206,-44.53306 36.09152,-80.64515 80.64512,-80.64515 44.55364,0 80.66573,36.11209 80.64516,80.64515 l 0,0 0,0 z"
     id="path2283"
     style="fill:#bc002d;fill-opacity:1;fill-rule:nonzero;stroke:none" />
  <path
     d="m 228.52536,165.5905 -201.21007,0"
     id="path7340"
     style="fill:none;stroke:#000000;stroke-width:1.00000048px;stroke-linecap:butt;stroke-linejoin:miter;stroke-opacity:1;marker-start:none;marker-end:none" />
  <path
     d="m 2.86503,172.54675 8.31211,0 0,2.00432 -11.17714,0 0,-2.00432 c 0.90392,-0.93536 2.136,-2.19101 3.69624,-3.76698 1.56023,-1.57596 2.54078,-2.59188 2.94166,-3.04778 0.76243,-0.85673 1.29495,-1.58186 1.59758,-2.17529 0.3026,-0.59344 0.45391,-1.17705 0.45392,-1.75085 -10e-6,-0.93536 -0.32817,-1.69778 -0.98449,-2.28731 -0.65632,-0.5895 -1.51112,-0.88424 -2.56437,-0.88427 -0.74672,3e-5 -1.5347,0.12972 -2.36394,0.38909 -0.82925,0.25939 -1.71548,0.65239 -2.65869,1.17902 l 0,-2.40522 c 0.95893,-0.38511 1.85499,-0.67595 2.68817,-0.87247 0.83317,-0.19649 1.5956,-0.29474 2.2873,-0.29476 1.82355,2e-5 3.27768,0.45592 4.36238,1.36767 1.08469,0.91181 1.62705,2.13011 1.62706,3.65498 -10e-6,0.72314 -0.13561,1.40893 -0.40676,2.05739 -0.27119,0.64847 -0.76442,1.41287 -1.47968,2.2932 -0.19651,0.22795 -0.82139,0.88624 -1.87464,1.97486 -1.05327,1.08864 -2.53884,2.61155 -4.45671,4.56872 l 0,0 0,0 z"
     id="flowRoot8522" />
  <path
     d="m 230.61762,8.2721881 c 1.11837,0.239111 1.99187,0.736599 2.62049,1.492464 0.62859,0.7558809 0.94289,1.6891519 0.94291,2.7998179 -2e-5,1.704575 -0.5862,3.023496 -1.75856,3.956766 -1.17239,0.933274 -2.83839,1.39991 -4.99802,1.39991 -0.72503,0 -1.47126,-0.07134 -2.2387,-0.214037 -0.76745,-0.142689 -1.55996,-0.356726 -2.37753,-0.642106 l 0,-2.256051 c 0.64788,0.377938 1.35748,0.663319 2.12879,0.856143 0.77129,0.192826 1.5773,0.289238 2.41802,0.289237 1.46546,10e-7 2.58192,-0.289235 3.34937,-0.867712 0.76743,-0.578471 1.15115,-1.419188 1.15117,-2.52215 -2e-5,-1.01811 -0.35674,-1.814476 -1.07018,-2.389101 -0.71346,-0.5746089 -1.70651,-0.8619189 -2.97915,-0.8619259 l -2.01309,0 0,-1.920536 2.10565,0 c 1.14922,10e-6 2.0285,-0.229451 2.63784,-0.688385 0.60932,-0.458912 0.91398,-1.120301 0.91399,-1.984168 -10e-6,-0.886982 -0.31431,-1.5676526 -0.94291,-2.0420173 -0.62862,-0.4743324 -1.52912,-0.7115062 -2.70148,-0.7115223 -0.64018,1.61e-5 -1.32664,0.069432 -2.05937,0.208249 -0.73274,0.1388513 -1.53875,0.3548145 -2.41802,0.6478916 l 0,-2.0825071 C 224.21583,0.4936497 225.0469,0.3085377 225.82206,0.185112 226.59721,0.0617214 227.32802,1.8e-5 228.01448,0 c 1.77398,1.8e-5 3.17774,0.4030206 4.2113,1.2090125 1.03353,0.8060242 1.5503,1.8954829 1.55031,3.2683816 -1e-5,0.956423 -0.27382,1.764358 -0.82144,2.423809 -0.54763,0.659472 -1.32664,1.116466 -2.33703,1.370985 l 0,0 0,0 z"
     id="flowRoot8533" />
  <path
     d="m 296.14694,299.55199 0,-267.922981"
     id="path4132"
     style="fill:none;stroke:#000000;stroke-width:1.00000048px;stroke-linecap:butt;stroke-linejoin:miter;stroke-opacity:1;marker-start:none;marker-end:none" />
  <path
     d="m 161.73835,299.55106 0,-267.922975"
     id="path4134"
     style="fill:none;stroke:#000000;stroke-width:1.00000048px;stroke-linecap:butt;stroke-linejoin:miter;stroke-opacity:1;marker-start:none;marker-end:none" />
  <path
     d="m 443.51807,245.78762 -214.99216,0"
     id="path5117"
     style="fill:none;stroke:#000000;stroke-width:1.00000048px;stroke-linecap:butt;stroke-linejoin:miter;stroke-opacity:1;marker-start:none;marker-end:none" />
  <path
     d="m 429.65948,192.56273 -201.16436,0"
     id="path5119"
     style="fill:none;stroke:#000000;stroke-width:1.00000048px;stroke-linecap:butt;stroke-linejoin:miter;stroke-opacity:1;marker-start:none;marker-end:none" />
  <path
     d="m 429.65948,138.79929 -201.16436,0"
     id="path5121"
     style="fill:none;stroke:#000000;stroke-width:1.00000048px;stroke-linecap:butt;stroke-linejoin:miter;stroke-opacity:1;marker-start:none;marker-end:none" />
  <path
     d="m 443.57502,85.393368 -215.05002,0"
     id="path5123"
     style="fill:none;stroke:#000000;stroke-width:1.00000048px;stroke-linecap:butt;stroke-linejoin:miter;stroke-opacity:1;marker-start:none;marker-end:none" />
  <rect
     width="402.32974"
     height="267.92114"
     x="27.329756"
     y="31.629929"
     id="rect5125"
     style="fill:none;stroke:#000000;stroke-width:1.00000012;stroke-miterlimit:4;stroke-opacity:1;stroke-dasharray:none" />
  <path
     d="m 429.65948,23.565409 -402.32973,0"
     id="path6116"
     style="fill:none;stroke:#000000;stroke-width:1.00000048px;stroke-linecap:butt;stroke-linejoin:miter;stroke-opacity:1;marker-start:url(#Arrow1Lstart);marker-mid:none;marker-end:url(#Arrow1Lend)" />
  <path
     d="m 20.1613,299.55106 0,-267.921147"
     id="path7299"
     style="fill:none;stroke:#000000;stroke-width:1.00000048px;stroke-linecap:butt;stroke-linejoin:miter;stroke-opacity:1;marker-start:url(#Arrow1Lstart);marker-mid:none;marker-end:url(#Arrow1Lend)" />
  <path
     d="m 457.65278,163.87538 c 1.18422,0.2532 2.10916,0.77998 2.7748,1.58036 0.66561,0.80039 0.99842,1.78862 0.99844,2.96469 -2e-5,1.80495 -0.62073,3.20154 -1.86212,4.18976 -1.24143,0.98823 -3.00554,1.48235 -5.29234,1.48235 -0.76773,0 -1.5579,-0.0755 -2.37053,-0.22664 -0.81264,-0.1511 -1.65181,-0.37773 -2.51754,-0.67992 l 0,-2.3889 c 0.68604,0.40019 1.43743,0.70238 2.25415,0.90655 0.81671,0.20419 1.67018,0.30628 2.56041,0.30627 1.55176,1e-5 2.73396,-0.30626 3.54661,-0.9188 0.81262,-0.61254 1.21894,-1.50276 1.21895,-2.67067 -1e-5,-1.07807 -0.37774,-1.92133 -1.1332,-2.52979 -0.75547,-0.60845 -1.807,-0.91268 -3.15458,-0.91269 l -2.13163,0 0,-2.03363 2.22964,0 c 1.2169,2e-5 2.14796,-0.24296 2.79318,-0.72892 0.6452,-0.48593 0.9678,-1.18627 0.96781,-2.10101 -10e-6,-0.93921 -0.33283,-1.65996 -0.99843,-2.16226 -0.66564,-0.50227 -1.61916,-0.75341 -2.86057,-0.75342 -0.67788,1e-5 -1.40476,0.0735 -2.18063,0.22051 -0.77589,0.14703 -1.62936,0.37571 -2.56042,0.68605 l 0,-2.20515 c 0.93922,-0.26133 1.81924,-0.45734 2.64005,-0.58803 0.82079,-0.13066 1.59463,-0.196 2.32152,-0.19602 1.87844,2e-5 3.36487,0.42676 4.45928,1.28021 1.09439,0.85349 1.64159,2.0071 1.64161,3.46085 -2e-5,1.01274 -0.28995,1.86825 -0.86981,2.56654 -0.57988,0.6983 -1.40476,1.18221 -2.47465,1.45171 l 0,0 0,0 z m 12.16502,-8.42853 2.08264,0 -6.37042,20.61806 -2.08262,0 6.3704,-20.61806 z m 4.81456,0 9.71487,0 0,2.08263 -7.44848,0 0,4.48378 c 0.35936,-0.12249 0.71871,-0.21437 1.07807,-0.27564 0.35935,-0.0612 0.71871,-0.0919 1.07807,-0.0919 2.04179,10e-6 3.6589,0.55947 4.85132,1.67836 1.19239,1.11891 1.78859,2.63392 1.78861,4.54504 -2e-5,1.9683 -0.61256,3.4976 -1.83762,4.58792 -1.22509,1.09032 -2.95245,1.63548 -5.18208,1.63548 -0.76772,0 -1.54973,-0.0653 -2.34603,-0.19601 -0.7963,-0.13068 -1.61915,-0.32669 -2.46853,-0.58804 l 0,-2.48691 c 0.73505,0.40019 1.49459,0.69829 2.27865,0.89431 0.78404,0.19601 1.61301,0.29402 2.48691,0.29401 1.41291,1e-5 2.53182,-0.3716 3.35671,-1.11482 0.82487,-0.74321 1.23732,-1.75185 1.23733,-3.02594 -1e-5,-1.27408 -0.41246,-2.28272 -1.23733,-3.02594 -0.82489,-0.74321 -1.9438,-1.11482 -3.35671,-1.11482 -0.66155,0 -1.32105,0.0735 -1.97851,0.22051 -0.65746,0.14702 -1.32921,0.3757 -2.01525,0.68604 l 0,-9.18808 0,2e-5 z"
     id="flowRoot7301"
     style="font-size:28px" />
  <path
     d="m 443.10034,245.78764 0,-160.394262"
     id="path7309"
     style="fill:none;stroke:#000000;stroke-width:1.00000048px;stroke-linecap:butt;stroke-linejoin:miter;stroke-opacity:1;marker-start:url(#Arrow1Lstart);marker-mid:none;marker-end:url(#Arrow1Lend)" />
  <path
     d="m 452.00183,194.18499 c -0.79679,-1.00534 -1.47058,-2.18181 -2.02138,-3.52939 -0.55079,-1.34758 -0.82619,-2.74329 -0.82619,-4.18713 0,-1.27272 0.20588,-2.49196 0.61764,-3.65773 0.48128,-1.35292 1.22459,-2.70051 2.22993,-4.04275 l 1.03475,0 c -0.64706,1.1123 -1.07486,1.90641 -1.28341,2.38233 -0.32621,0.73797 -0.58289,1.50802 -0.77005,2.31015 -0.22995,1 -0.34492,2.00533 -0.34492,3.01602 0,2.57217 0.79946,5.14167 2.39838,7.7085 z"
     id="path3016"
     style="font-size:40px;font-style:normal;font-weight:normal;line-height:125%;letter-spacing:0px;word-spacing:0px;fill:#000000;fill-opacity:1;stroke:none;font-family:Sans" />
  <path
     d="m 454.19165,186.46847 c 0,-1.57753 0.4385,-2.74597 1.3155,-3.50533 0.73261,-0.631 1.62566,-0.94651 2.67913,-0.94651 1.17111,0 2.12832,0.38369 2.87163,1.15106 0.74331,0.76738 1.11496,1.82753 1.11497,3.18046 -1e-5,1.09625 -0.16445,1.95854 -0.49331,2.58687 -0.32889,0.62835 -0.80749,1.11631 -1.43582,1.4639 -0.62834,0.34759 -1.31417,0.52138 -2.05747,0.52138 -1.19251,0 -2.15641,-0.38235 -2.89169,-1.14705 -0.73529,-0.76469 -1.10294,-1.86629 -1.10294,-3.30478 z m 1.48395,0 c 0,1.0909 0.23796,1.90774 0.7139,2.45051 0.47593,0.54278 1.07485,0.81417 1.79678,0.81417 0.71656,0 1.31282,-0.27273 1.78875,-0.81818 0.47593,-0.54545 0.7139,-1.37699 0.7139,-2.49463 0,-1.05346 -0.23931,-1.85159 -0.71791,-2.39437 -0.47861,-0.54277 -1.07352,-0.81416 -1.78474,-0.81416 -0.72193,0 -1.32085,0.27005 -1.79678,0.81015 -0.47594,0.54011 -0.7139,1.35561 -0.7139,2.44651 z"
     id="path3018"
     style="font-size:40px;font-style:normal;font-weight:normal;line-height:125%;letter-spacing:0px;word-spacing:0px;fill:#000000;fill-opacity:1;stroke:none;font-family:Sans" />
  <path
     d="m 464.21832,190.72779 0,-7.39566 -1.27539,0 0,-1.12299 1.27539,0 0,-0.90641 c 0,-0.57218 0.0508,-0.99731 0.1524,-1.2754 0.13904,-0.37431 0.38369,-0.67779 0.73396,-0.91042 0.35026,-0.2326 0.8409,-0.34891 1.47191,-0.34892 0.40641,1e-5 0.8556,0.0481 1.34758,0.14438 l -0.21657,1.25935 c -0.29947,-0.0535 -0.58289,-0.0802 -0.85026,-0.0802 -0.43851,1e-5 -0.74866,0.0936 -0.93048,0.28074 -0.18182,0.18718 -0.27273,0.53744 -0.27272,1.0508 l 0,0.78609 1.66041,0 0,1.12299 -1.66041,0 0,7.39566 z"
     id="path3020"
     style="font-size:40px;font-style:normal;font-weight:normal;line-height:125%;letter-spacing:0px;word-spacing:0px;fill:#000000;fill-opacity:1;stroke:none;font-family:Sans" />
  <path
     d="m 480.17275,189.3401 0,1.38769 -7.77267,0 c -0.0107,-0.34759 0.0455,-0.68181 0.16845,-1.00267 0.19785,-0.5294 0.5147,-1.05079 0.95052,-1.56415 0.43583,-0.51336 1.0655,-1.10694 1.88903,-1.78074 1.27806,-1.04812 2.14169,-1.87832 2.59089,-2.49062 0.44918,-0.61229 0.67378,-1.19116 0.67379,-1.73662 -10e-6,-0.57218 -0.20455,-1.0548 -0.61363,-1.44785 -0.4091,-0.39304 -0.94251,-0.58956 -1.60026,-0.58957 -0.69518,1e-5 -1.25133,0.20856 -1.66844,0.62566 -0.41711,0.41712 -0.62834,0.99466 -0.63368,1.73261 l -1.48395,-0.1524 c 0.10161,-1.10694 0.48395,-1.95051 1.14705,-2.53073 0.6631,-0.5802 1.55346,-0.87031 2.67111,-0.87032 1.12832,1e-5 2.02137,0.31285 2.67912,0.9385 0.65774,0.62567 0.98662,1.40107 0.98662,2.32618 0,0.4706 -0.0963,0.93316 -0.28876,1.38769 -0.19252,0.45455 -0.51204,0.93316 -0.95855,1.43582 -0.44653,0.50268 -1.1885,1.19251 -2.22592,2.06951 -0.86631,0.72727 -1.42245,1.22058 -1.66844,1.47993 -0.24599,0.25936 -0.4492,0.52005 -0.60962,0.78208 z"
     id="path3022"
     style="font-size:40px;font-style:normal;font-weight:normal;line-height:125%;letter-spacing:0px;word-spacing:0px;fill:#000000;fill-opacity:1;stroke:none;font-family:Sans" />
  <path
     d="m 483.07647,194.18499 -1.03475,0 c 1.59891,-2.56683 2.39837,-5.13633 2.39838,-7.7085 -10e-6,-1.00534 -0.11498,-2.00266 -0.34492,-2.99196 -0.18182,-0.80213 -0.43583,-1.57217 -0.76203,-2.31014 -0.20855,-0.48127 -0.63903,-1.28341 -1.29143,-2.4064 l 1.03475,0 c 1.00534,1.34224 1.74865,2.68983 2.22993,4.04275 0.41176,1.16577 0.61764,2.38501 0.61764,3.65773 0,1.44384 -0.27674,2.83955 -0.83021,4.18713 -0.55347,1.34758 -1.22592,2.52405 -2.01736,3.52939 z"
     id="path3024"
     style="font-size:40px;font-style:normal;font-weight:normal;line-height:125%;letter-spacing:0px;word-spacing:0px;fill:#000000;fill-opacity:1;stroke:none;font-family:Sans" />
</svg>
