<svg xmlns="http://www.w3.org/2000/svg" xmlns:xlink="http://www.w3.org/1999/xlink" height="600" width="900"><g transform="matrix(0.29993515,0,0,0.29993515,0,0.1297)"><use height="100%" width="100%" transform="matrix(1,0,0,-1,0,1999.5676)" xlink:href="#a"/><path d="M 1129.132,999.78379 3000.6486,2000 l 0,-2000.43242681 z" fill="#b0313f"/><path d="M 1218.5035,999.78379 0,-0.43242681 V 2000 Z" fill="#fff"/><path d="M 1218.504,999.78379 0,348.33897 1e-4,1651.2286 Z" fill="#b0313f"/><path d="M 1218.504,999.78379 0,630.07487 1e-4,1369.4927 Z" fill="#fff"/><path d="M 0,879.75784 V 1119.8097 L 1218.5,999.78379 Z" fill="#b0313f"/><path d="M 1129.132,999.78379 3000.6486,1567.4285 V 432.13908 Z" fill="#fff"/><path d="M 3000.6486,815.49395 1129.125,999.78379 3000.6486,1184.0736 Z" fill="#b0313f"/><path id="a" d="M 0,2000 H 1183.5097 V 1028.509 Z" fill="#b0313f" stroke-width="1"/><path id="b" d="m 386.4,2000 h 797.1097 v -971.491 z" fill="#fff" stroke-width="1"/><path id="c" d="m 664.3492,2000 h 519.1605 v -971.491 z" fill="#b0313f" stroke-width="1"/><path id="d" d="m 888.8747,2000 h 294.635 v -971.491 z" fill="#fff" stroke-width="1"/><path id="e" d="M 3000.6486,2000 H 1183.5097 v -971.491 z" fill="#fff" stroke-width="1"/><path id="f" d="M 2367.019,2000 H 1183.5097 v -971.491 z" fill="#b0313f" stroke-width="1"/><path id="g" d="M 1980.6194,2000 H 1183.5097 V 1028.509 Z" fill="#fff" stroke-width="1"/><path id="h" d="M 1702.6702,2000 H 1183.5097 V 1028.509 Z" fill="#b0313f" stroke-width="1"/><path id="i" d="M 1478.1445,2000 H 1183.5097 V 1028.509 Z" fill="#fff" stroke-width="1"/><path id="j" d="M 1183.5,1028.5088 1087.8438,2000 h 191.3437 z" fill="#b0313f" stroke-width="1"/><g transform="matrix(1,0,0,-1.0002162,0,2000)"><use height="100%" width="100%" xlink:href="#b"/><use height="100%" width="100%" xlink:href="#c"/><use height="100%" width="100%" xlink:href="#d"/><use height="100%" width="100%" xlink:href="#e"/><use height="100%" width="100%" xlink:href="#f"/><use height="100%" width="100%" xlink:href="#g"/><use height="100%" width="100%" xlink:href="#h"/><use height="100%" width="100%" xlink:href="#i"/><use height="100%" width="100%" xlink:href="#j"/></g><path d="m 1667.027,999.92522 a 500.10811,500.10811 0 0 1 -1000.21618,0 500.10811,500.10811 0 1 1 1000.21618,0 z" fill="#b0313f"/></g></svg>