<svg xmlns="http://www.w3.org/2000/svg" width="900" height="600"><defs><clipPath clipPathUnits="userSpaceOnUse" id="j"><path fill="green" fill-rule="evenodd" stroke-width="1.207" d="M-233.804 -375.571H666.196V224.42899999999997H-233.804z"/></clipPath><clipPath clipPathUnits="userSpaceOnUse" id="i"><path fill="green" fill-rule="evenodd" stroke-width="1.207" d="M65.768 -376.327H965.768V223.673H65.768z"/></clipPath><clipPath clipPathUnits="userSpaceOnUse" id="h"><path fill="green" fill-rule="evenodd" stroke-width="1.207" d="M65.768 -376.327H965.768V223.673H65.768z"/></clipPath><clipPath clipPathUnits="userSpaceOnUse" id="g"><path fill="green" fill-rule="evenodd" stroke-width="1.207" d="M65.768 -376.327H965.768V223.673H65.768z"/></clipPath><clipPath clipPathUnits="userSpaceOnUse" id="f"><path fill="green" fill-rule="evenodd" stroke-width="1.207" d="M65.768 -376.327H965.768V223.673H65.768z"/></clipPath><clipPath clipPathUnits="userSpaceOnUse" id="e"><path fill="green" fill-rule="evenodd" stroke-width="1.207" d="M65.768 -376.327H965.768V223.673H65.768z"/></clipPath><clipPath clipPathUnits="userSpaceOnUse" id="d"><path fill="green" fill-rule="evenodd" stroke-width="1.207" d="M65.768 -376.327H965.768V223.673H65.768z"/></clipPath><clipPath clipPathUnits="userSpaceOnUse" id="c"><path fill="green" fill-rule="evenodd" stroke-width="1.207" d="M65.768 -376.327H965.768V223.673H65.768z"/></clipPath><clipPath clipPathUnits="userSpaceOnUse" id="b"><path fill="green" fill-rule="evenodd" stroke-width="1.207" d="M65.768 -376.327H965.768V223.673H65.768z"/></clipPath><clipPath clipPathUnits="userSpaceOnUse" id="a"><path fill="green" fill-rule="evenodd" stroke-width="1.207" d="M65.768 -376.327H965.768V223.673H65.768z"/></clipPath></defs><g transform="translate(-65.767868,376.32739)"><path clip-path="url(#a)" fill="#fff" fill-rule="evenodd" d="M65.768 -376.327H965.768V223.673H65.768z"/><path d="m 456.95757,520.78359 117.62057,2e-5 -117.62058,-1194.2217 117.62057,-3e-4 z" clip-path="url(#b)" fill="#b0313f"/><path d="m 232.92975,452.82538 108.66724,45.01145 348.34161,-1148.32844 108.66735,45.01117 z" clip-path="url(#c)" fill="#b0313f"/><path d="m 51.961465,304.30862 83.170315,83.17026 761.27194,-927.61254 83.17051,83.17009 z" clip-path="url(#d)" fill="#b0313f"/><path d="m -58.396507,97.84345 45.01148,108.6672 1058.305527,-565.67608 45.0117,108.66712 z" clip-path="url(#e)" fill="#b0313f"/><path d="m -81.343172,-135.13767 4e-5,117.620547 1194.221732,-117.620547 3e-4,117.620557 z" clip-path="url(#f)" fill="#b0313f"/><path d="m -13.385019,-359.16552 -45.0114,108.66723 L 1089.9321,97.8434 1044.921,206.51074 Z" clip-path="url(#g)" fill="#b0313f"/><path d="m 135.1318,-540.13385 -83.170261,83.17031 927.612651,761.27207 -83.17002,83.17053 z" clip-path="url(#h)" fill="#b0313f"/><path d="M 341.597,-650.49185 232.9298,-605.48039 798.60593,452.82529 689.93887,497.83705 Z" clip-path="url(#i)" fill="#b0313f"/><path transform="translate(299.57141,-0.7559895)" d="m 366.19644,-75.571401 a 150,150 0 0 1 -150,150 150,150 0 0 1 -150.00002,-150 150,150 0 0 1 150.00002,-149.999999 150,150 0 0 1 150,149.999999 z" clip-path="url(#j)" fill="#b0313f"/></g></svg>