<?xml version="1.0" encoding="UTF-8" standalone="no"?>
<!-- Created with Inkscape (http://www.inkscape.org/) -->
<svg
   xmlns:svg="http://www.w3.org/2000/svg"
   xmlns="http://www.w3.org/2000/svg"
   version="1.0"
   width="275"
   height="400"
   id="svg2211">
  <defs
     id="defs2214" />
  <path
     d="M 64,352 C 63.230676,348.74125 64.321834,297.24454 64.25,293.6702 C 63.98184,280.32693 62.086509,277.26157 60,275 C 58.97092,273.88458 58.805068,270.05207 60.428571,268.42857 C 62.043786,266.81336 65.563252,266.98357 68.739396,267.91313 C 69.267285,268.06763 75.36276,271.06583 76.542418,272.47676 C 79.232502,275.69424 77.340509,345.59096 76.901646,350.0482 C 76.408125,355.06057 76.253106,358.31818 74.286156,359.84875 C 68.945696,364.00438 64.519041,354.19859 64,352 z M 185.48126,356.39031 C 184.84933,349.67873 183.00586,350.65026 169.5,350.11029 C 161.42993,349.78764 89.434327,350.77327 86.982872,350.38127 C 82.209846,349.61803 80,348.09588 80,345.57143 C 80,344.49206 84.213437,343.28611 86,343 C 87.60959,342.74223 163.56857,337.95494 171.77906,338.06115 C 178.50058,338.14811 185.46046,339.33092 186,338.08333 C 188.00016,333.45831 194.21254,309.33558 195,305.27924 C 195.63043,302.03179 196.65613,295.5 197,288.5 C 197.34346,281.50843 198.61777,276.67354 199,275 C 200.26384,269.46643 205.61824,275.50288 207.22925,276.82807 C 209.07338,278.34502 213.92571,281.89838 214,284.5 C 214.31891,295.66857 200.41065,343.05669 197.54108,350.10732 C 196.234,353.31886 192.56337,358.13182 191.46119,359.20176 C 188.35373,362.21831 185.71827,358.90752 185.48126,356.39031 z M 94,292 C 94,278.66667 93.950391,273.61789 93,271 C 92.371654,269.2692 91.192638,267.51516 91,267 C 89.668187,263.43841 92.490898,263.08687 94.824231,263.08687 C 96.474231,263.08687 97.622567,265.18104 99.347473,266.7394 C 101.7781,268.93533 103.96042,266.94528 109,266 C 111.62026,265.50851 148.76761,259.82354 154.79385,259.11846 C 156.4663,258.92278 170.47346,257.43967 174.79244,261.13132 C 176.54854,262.63234 178.619,264.37506 177.89268,270.25 C 177.09003,276.74228 166.25115,313.92298 165.64675,317.56061 C 165.23177,320.05815 164.37392,322.76894 163.58225,323.56061 C 161.95907,325.18379 156.82663,324.09234 155,324 C 152.9224,323.89497 117.62836,326.28093 113.77775,325.47879 C 110.71413,324.84059 103.95886,324.75487 103.60604,325.89192 C 103.08171,327.58172 99.621219,328.08687 98.065659,328.08687 C 95.534347,328.08687 94,305.33333 94,292 z M 124.89435,298.96217 C 125.77994,294.49039 121.23599,295.75593 109.6505,298 C 107.08031,298.49784 104.0995,298.05912 104.91313,307.84747 C 105.72738,317.64337 104.92896,315.10015 106.04242,316.56566 C 107.18688,318.07198 120.63922,317.56627 122.05347,316.53226 C 123.5383,315.44666 124.00103,303.473 124.89435,298.96217 z M 152.22937,315.08687 C 154.9401,315.08687 163.69718,270.21039 161,268 C 159.11033,266.45138 154.53523,266.51253 152.12188,266.77313 C 147.15079,267.30992 142.07386,267.62754 140.60808,270.47879 C 139.02661,273.55506 138.36711,275.49796 138,278.45259 C 136.95626,286.85289 137.24566,284.1052 144.38276,283.91645 C 157.87217,283.55541 154.49587,291.82731 147.42018,292.30249 C 147.42018,292.30249 139.80732,293.39398 138.90905,294 C 135.23391,296.47943 135.71138,311.33265 135.90748,312.84875 C 136.29624,315.85428 136.83333,315 140.5,315 C 144.16667,315 151.21766,315.08687 152.22937,315.08687 z M 107.9789,290.56335 C 110.11512,290.39592 118.4129,288.64841 120.5,288 C 123.82473,286.9671 123.92438,287.14434 124,283.5 C 124.05243,281.02556 123.00689,277.17437 122.616,274.66313 C 122.25641,272.35305 118.69762,272.64411 114.91667,273 C 105.36217,273.89933 105,275.66667 105,278.91667 C 105,281.11433 104.59475,285.18457 104.59475,287.6758 C 104.59475,291.00913 105.72898,290.73969 107.9789,290.56335 z M 88.454545,244 C 74.858467,236.7336 87.110414,236.34541 97.684059,237.30716 C 114.54385,238.84068 151.77495,226.04044 161,228 C 162.78835,228.37988 166.43211,230.4075 167.54545,231 C 169.3308,231.95014 173.93417,235.00248 173.93417,237.03916 C 173.93417,238.9675 173.15879,240.26128 171.34795,241.74295 C 169.00399,243.66083 168.19248,244 162.04545,244 C 158.01515,244 143.33333,244 130,244 C 116.66667,244 105.16667,246 99.5,246 C 93.833333,246 90.260373,244.96512 88.454545,244 z M 123.25,225.50417 C 121.28268,223.26968 121.17951,191.96795 123.5,190.35714 C 124.9202,189.37128 124.78521,189.58497 126.57143,190.42857 C 128.21752,191.20599 128.60423,191.79369 129.07143,192 C 134.18615,194.25857 129.57743,222.658 128.17374,224.7394 C 126.99065,226.49368 125.139,227.6497 123.25,225.50417 z M 187.90121,187 C 187.29688,187 158.54133,162.65 157,161 C 154.89029,158.74155 153.30802,158 150.59879,158 C 147.99383,158 146.78884,159.39032 144.76165,161.74394 C 143.75413,162.91371 131.89084,171.65302 129.48082,173.30302 C 127.61772,174.57858 105.14682,184.51921 103,185 C 101.0606,185.43434 97.875,187 96.5,187 C 94.666667,187 94,186.46667 94,185 C 94,183.68991 94.760385,183.47802 95.932612,183 C 97.636801,182.30505 116.77993,169.06545 120.65172,166.36973 C 127.3068,161.73616 137.96115,152.77304 140.52936,150.49666 C 142.16786,149.04434 140.72727,148.45856 138.86955,148 C 137.1315,147.57097 128.65,143 127,143 C 123.64486,143 123.34607,142.51107 125.42857,140.42857 C 127.04379,138.81336 131.04648,138.81302 134,140 C 134.51033,140.20509 146.35,145 148,145 C 150.33333,145 150.53317,144.44167 151.43434,143.17374 C 152.21615,142.07374 156.06085,132.65489 156.46084,131.5925 C 157.52541,128.76495 156.63751,128.86833 153.20999,129.52667 C 151.58961,129.8379 131.30952,137 127.92857,137 C 121.73643,137 119,135.66827 119,132.65476 C 119,131.83631 118.49231,129.03922 124.04578,128.74015 C 129.36887,128.4585 158.67164,120.06085 168.88856,121.37715 C 170.76675,121.61913 176.18098,125.50695 175.25,129.26189 C 173.58441,135.97971 161,148.71316 161,152 C 161,155.33333 161.64755,155.02601 163,156 C 164.44747,157.04242 191.88714,170.89552 198.01356,173 C 203.64542,174.93459 222.32488,178.26497 228.53017,179.40253 C 230.73299,179.80635 235,181.55172 235,183 C 235,184.46667 234.33333,185 232.5,185 C 231.125,185 225.95587,184.98387 222.17983,185.43637 C 214.76384,186.32508 206.05733,190.75619 198,190.91921 C 189.53336,191.09052 188.50554,187 187.90121,187 z M 55,152.02689 C 54.977963,149.38265 59.577626,148.07805 63.693183,145.16042 C 67.845566,142.21669 87.123572,107.12073 90,100.5 C 91.002704,98.192057 92.666667,95 94,95 C 95.619048,95 96,95.666667 96,98.5 C 96,100.425 94.973519,104.02711 94,106 C 91.700634,110.65978 79.396009,145.12563 77.087898,154 C 75.531438,159.98437 74.677736,165.99117 72.624315,168.02084 C 70.815476,169.80937 70.508678,168.58676 69.25,168.56804 C 66.782607,168.53134 55.026459,155.26603 55,152.02689 z M 111.00623,123.50417 C 110.31873,122.7233 111.60526,99.903264 111.90748,96.882868 C 112.16378,94.321486 113.03428,89.543002 112,87 C 110.37853,83.013268 110.91214,80.805953 113,81 C 116.08952,81.287143 119.69698,86.162637 121,89 C 121.61209,90.332839 121.78191,91.639734 123.5,91 C 126.95362,89.714038 142.52669,86.065068 153.74427,84.837898 C 161.23348,84.0186 165.85199,86.527668 166.37898,83 C 166.99779,78.857759 166.06842,77.862085 166.10477,74.5 C 166.14823,70.480774 166.77219,54.671808 168,48.5 C 171.66231,30.090748 166.07114,35.152819 163.29001,35.131668 C 159.49626,35.102814 137.77178,40.455041 134,42.916667 C 131.76887,44.372799 132.07202,51.585748 133.42857,53.571429 C 136.01155,57.352337 146.66297,49.687739 153.47264,49 C 158.04513,48.538204 160.60936,49.466507 161.64286,50.5 C 164.34561,53.202756 160.92545,55.176015 152.70361,55.657492 C 148.74162,55.889508 138.57479,59.507516 137,60 C 134.26334,60.855839 134,60 134,66 C 134,69.333333 134.25057,69.675273 135.73666,70.407496 C 136.74654,70.90508 153.01585,66.579343 154.3673,66 C 155.74945,65.407496 163.69876,63.270034 162.86833,68.329169 C 162.4701,70.755246 157.62232,72.400652 155.93808,73.119174 C 154.08628,73.909179 136.78167,78.02 135.13167,78.35 C 132.98352,78.77963 132.78625,79.756674 132,80.975 C 131.14416,82.301164 131.08469,82.802499 128.16523,82.802499 C 122.07985,82.802499 122.1885,82.460637 121.82684,59.980503 C 121.58349,44.854265 121.18068,39.558304 120.25,39.248897 C 118.55429,38.685158 118.6575,33.345406 120.37686,32.685628 C 122.32897,31.936531 130.72337,33.753276 132.50168,34.000001 C 134.8837,34.330486 162.09283,30.300752 167,28 C 169.29983,26.921716 171.95235,27.196031 174.85584,27.921673 C 178.43285,28.815641 183.14758,32.961261 183.03056,35.923449 C 182.67782,44.852365 178.88838,60.966664 176.43434,73.857797 C 174.56476,83.678745 177.75269,81.186491 186.4247,79.838108 C 188.62394,79.494433 189.43045,78.043434 191.51004,78 C 193.81478,77.951863 202.30814,85.444891 203.21839,90.299901 C 203.80557,93.431751 202.10582,94.152115 201.55505,95.665212 C 200.7272,97.939521 191.84638,106.21868 190.30505,107.86868 C 188.76372,109.51868 185.54133,111.35 184,113 C 180.6639,116.57131 178.0823,116.15239 174.73266,113.75 C 172.92099,112.45066 170.44257,113.13954 168.30971,112.99936 C 163.29863,112.67001 135.81372,115.5383 128.78385,117.47879 C 123.96709,118.80838 119.2606,118.81462 119,120.5 C 118.39967,124.38247 113.66224,126.52088 111.00623,123.50417 z M 128.54545,112 C 129.94545,112 132.19545,110.89545 133.54545,109.54545 C 135.61016,107.48075 136,106.13075 136,101.04545 C 136,96.236672 136.09563,95.287647 134.44098,95 C 130.82543,94.371469 126.12225,95.91615 124.944,96.541895 C 122.65404,97.758049 120.95663,97.56014 121.66844,103.25 C 122.09737,106.67863 123.09455,111.54351 124,112.08333 C 125.47676,112.96376 127.14545,112 128.54545,112 z M 155.1543,103.33333 C 155.36765,101.66273 157.16439,95.08504 155.57143,92.590673 C 154.48211,90.884947 151.65074,92.354129 149.25507,92.441382 C 143.47848,92.647762 145.27931,97.290572 145,102.08179 C 144.67938,107.58178 145.1656,108.16866 147.30064,108 C 154.56374,107.43264 154.75219,106.48199 155.1543,103.33333 z M 164.20331,106.5867 C 166.00583,108.21637 177.05814,107.38124 179.89593,106.50322 C 182.22899,105.78136 185.27502,95.014072 186,92.632705 C 187.31148,88.324816 183.55757,89.111276 180,89 C 176.67513,88.896002 173.35569,89.590883 171.75064,90.675018 C 168.0896,93.147862 166.51805,95.244827 165.16902,98.084248 C 163.98305,100.58046 163.0626,105.55537 164.20331,106.5867 z M 74,95 C 73.20483,93.896761 65.657201,90.871577 61.779241,89 C 58.943601,87.631467 58.044583,86.812559 60.527879,84.329264 C 61.746866,83.110276 75.687433,83.021476 79.583333,85 C 80.768433,85.60185 88.267368,87.807117 88,93 C 87.905236,94.821582 83.769721,97 80.720759,97 C 76.588691,97 75.128278,96.565402 74,95 z M 86,61 C 84.349505,60.530832 69.521209,48.864174 69.521209,46.658297 C 69.521209,45.340001 70.549088,45.546874 78.5,45 C 86.164635,44.478791 94.521209,46.842136 94,54.5 C 93.817304,57.184266 93.399267,59.74359 92.571429,60.571429 C 90.947925,62.194932 87.596309,61.453765 86,61 z "
     style="fill:#000000"
     id="path2222" />
</svg>
