<?xml version="1.0" encoding="UTF-8" standalone="no"?>
<!-- Created with Inkscape (http://www.inkscape.org/) -->
<svg
   xmlns:svg="http://www.w3.org/2000/svg"
   xmlns="http://www.w3.org/2000/svg"
   version="1.0"
   width="500"
   height="640"
   id="svg8958">
  <defs
     id="defs8960" />
  <g
     id="layer1">
    <rect
       width="490"
       height="630"
       ry="3.3643243"
       x="5.5"
       y="4.5"
       style="font-size:144px;fill:#000000;fill-opacity:0;stroke:#000000;stroke-width:4;stroke-miterlimit:4;stroke-dasharray:none;stroke-opacity:1"
       id="rect8966" />
    <path
       d="M 160.5,319 L 160.5,478"
       style="fill:none;fill-rule:evenodd;stroke:#000000;stroke-width:4;stroke-linecap:butt;stroke-linejoin:miter;stroke-miterlimit:4;stroke-dasharray:none;stroke-opacity:1"
       id="path16754" />
    <path
       d="M 5.5,189.5 L 494.5,189.5"
       style="fill:none;fill-rule:evenodd;stroke:#000000;stroke-width:4;stroke-linecap:butt;stroke-linejoin:miter;stroke-miterlimit:4;stroke-dasharray:none;stroke-opacity:1"
       id="path10906" />
    <path
       d="M 5.5,319.5 L 494.5,319.5"
       style="fill:none;fill-rule:evenodd;stroke:#000000;stroke-width:4;stroke-linecap:butt;stroke-linejoin:miter;stroke-miterlimit:4;stroke-dasharray:none;stroke-opacity:1"
       id="path11901" />
    <path
       d="M 340.5,319 L 340.5,633"
       style="fill:none;fill-rule:evenodd;stroke:#000000;stroke-width:4;stroke-linecap:butt;stroke-linejoin:miter;stroke-miterlimit:4;stroke-dasharray:none;stroke-opacity:1"
       id="path12874" />
    <path
       d="M 5.75,479.25 L 339.75,479.25"
       style="fill:none;fill-rule:evenodd;stroke:#000000;stroke-width:4;stroke-linecap:butt;stroke-linejoin:miter;stroke-miterlimit:4;stroke-dasharray:none;stroke-opacity:1"
       id="path13845" />
    <path
       d="M 140.5,190.5 L 140.5,319.5"
       style="fill:none;fill-rule:evenodd;stroke:#000000;stroke-width:4;stroke-linecap:butt;stroke-linejoin:miter;stroke-miterlimit:4;stroke-dasharray:none;stroke-opacity:1"
       id="path17725" />
    <path
       d="M 297,189 L 297,318"
       style="fill:none;fill-rule:evenodd;stroke:#000000;stroke-width:4;stroke-linecap:butt;stroke-linejoin:miter;stroke-miterlimit:4;stroke-dasharray:none;stroke-opacity:1"
       id="path18696" />
    <path
       d="M 276.67188,140 L 256.91406,140 L 256.91406,65.539062 C 249.69528,72.28913 241.18748,77.281313 231.39062,80.515625 L 231.39062,62.585938 C 236.54686,60.898517 242.14842,57.71102 248.19531,53.023438 C 254.24215,48.289154 258.39059,42.781347 260.64062,36.5 L 276.67188,36.5 L 276.67188,140"
       style="font-size:144px;font-style:normal;font-weight:bold;fill:#000000;fill-opacity:1;stroke:none;stroke-width:1px;stroke-linecap:butt;stroke-linejoin:miter;stroke-opacity:1;font-family:Arial"
       id="text18706" />
    <path
       d="M 432.84375,286.64844 L 432.84375,305 L 363.58594,305 C 364.33593,298.06251 366.58593,291.50001 370.33594,285.3125 C 374.08592,279.07815 381.49217,270.82816 392.55469,260.5625 C 401.4609,252.26568 406.92183,246.64068 408.9375,243.6875 C 411.6562,239.60944 413.01557,235.57819 413.01562,231.59375 C 413.01557,227.18758 411.82026,223.81258 409.42969,221.46875 C 407.08589,219.07821 403.82808,217.8829 399.65625,217.88281 C 395.53121,217.8829 392.24997,219.12509 389.8125,221.60938 C 387.37497,224.09383 385.96872,228.21883 385.59375,233.98438 L 365.90625,232.01562 C 367.07812,221.14071 370.7578,213.33603 376.94531,208.60156 C 383.13279,203.86729 390.86716,201.5001 400.14844,201.5 C 410.32026,201.5001 418.31244,204.24229 424.125,209.72656 C 429.93743,215.21103 432.84368,222.03133 432.84375,230.1875 C 432.84368,234.8282 431.99993,239.25788 430.3125,243.47656 C 428.67181,247.64849 426.04681,252.0313 422.4375,256.625 C 420.04681,259.67192 415.73432,264.05473 409.5,269.77344 C 403.26558,275.49222 399.30465,279.28909 397.61719,281.16406 C 395.97653,283.03908 394.64059,284.86721 393.60938,286.64844 L 432.84375,286.64844"
       style="font-size:144px;font-style:normal;font-weight:bold;fill:#000000;fill-opacity:1;stroke:none;stroke-width:1px;stroke-linecap:butt;stroke-linejoin:miter;stroke-opacity:1;font-family:Arial"
       id="text18710" />
    <path
       d="M 195.41406,277.64844 L 214.53906,275.32812 C 215.14841,280.20315 216.78904,283.92971 219.46094,286.50781 C 222.13278,289.08595 225.36715,290.37501 229.16406,290.375 C 233.24214,290.37501 236.66402,288.82814 239.42969,285.73438 C 242.24214,282.64065 243.64838,278.46878 243.64844,273.21875 C 243.64838,268.25004 242.31245,264.31254 239.64062,261.40625 C 236.9687,258.50005 233.71089,257.04692 229.86719,257.04688 C 227.3359,257.04692 224.31247,257.53911 220.79688,258.52344 L 222.97656,242.42188 C 228.32027,242.56256 232.3984,241.41413 235.21094,238.97656 C 238.02339,236.49226 239.42964,233.21101 239.42969,229.13281 C 239.42964,225.66414 238.39839,222.89852 236.33594,220.83594 C 234.27339,218.77352 231.53121,217.74227 228.10938,217.74219 C 224.73434,217.74227 221.85153,218.91415 219.46094,221.25781 C 217.07029,223.60164 215.61716,227.02352 215.10156,231.52344 L 196.89062,228.42969 C 198.15624,222.1954 200.05468,217.22665 202.58594,213.52344 C 205.16405,209.77353 208.72654,206.84385 213.27344,204.73438 C 217.86716,202.57823 222.99997,201.5001 228.67188,201.5 C 238.37495,201.5001 246.15619,204.59385 252.01562,210.78125 C 256.84368,215.84384 259.25774,221.56258 259.25781,227.9375 C 259.25774,236.98444 254.31244,244.20319 244.42188,249.59375 C 250.32806,250.85943 255.039,253.69536 258.55469,258.10156 C 262.11712,262.50785 263.89836,267.82816 263.89844,274.0625 C 263.89836,283.1094 260.59368,290.82033 253.98438,297.19531 C 247.37494,303.57031 239.14839,306.75781 229.30469,306.75781 C 219.97653,306.75781 212.24217,304.08594 206.10156,298.74219 C 199.96093,293.35157 196.39843,286.32033 195.41406,277.64844"
       style="font-size:144px;font-style:normal;font-weight:bold;fill:#000000;fill-opacity:1;stroke:none;stroke-width:1px;stroke-linecap:butt;stroke-linejoin:miter;stroke-opacity:1;font-family:Arial"
       id="text18714" />
    <path
       d="M 84.859375,305 L 84.859375,284.25781 L 42.671875,284.25781 L 42.671875,266.96094 L 87.390625,201.5 L 103.98438,201.5 L 103.98438,266.89062 L 116.78125,266.89062 L 116.78125,284.25781 L 103.98438,284.25781 L 103.98438,305 L 84.859375,305 M 84.859375,266.89062 L 84.859375,231.66406 L 61.164062,266.89062 L 84.859375,266.89062"
       style="font-size:144px;font-style:normal;font-weight:bold;fill:#000000;fill-opacity:1;stroke:none;stroke-width:1px;stroke-linecap:butt;stroke-linejoin:miter;stroke-opacity:1;font-family:Arial"
       id="text18718" />
    <path
       d="M 386.39844,503.49219 L 406.08594,501.45312 C 406.64841,505.90627 408.31247,509.44533 411.07812,512.07031 C 413.84372,514.64845 417.03121,515.93751 420.64062,515.9375 C 424.76558,515.93751 428.25776,514.27345 431.11719,510.94531 C 433.97651,507.57033 435.40619,502.50784 435.40625,495.75781 C 435.40619,489.42973 433.97651,484.69536 431.11719,481.55469 C 428.30464,478.36724 424.62496,476.77349 420.07812,476.77344 C 414.40622,476.77349 409.32028,479.2813 404.82031,484.29688 L 388.78906,481.97656 L 398.91406,428.32812 L 451.15625,428.32812 L 451.15625,446.82031 L 413.89062,446.82031 L 410.79688,464.32812 C 415.20309,462.12507 419.70309,461.02351 424.29688,461.02344 C 433.06245,461.02351 440.49213,464.211 446.58594,470.58594 C 452.67961,476.96099 455.72649,485.23442 455.72656,495.40625 C 455.72649,503.89065 453.26555,511.46096 448.34375,518.11719 C 441.64056,527.21094 432.33589,531.75781 420.42969,531.75781 C 410.91403,531.75781 403.15623,529.20313 397.15625,524.09375 C 391.15624,518.98439 387.5703,512.11721 386.39844,503.49219"
       style="font-size:144px;font-style:normal;font-weight:bold;fill:#000000;fill-opacity:1;stroke:none;stroke-width:1px;stroke-linecap:butt;stroke-linejoin:miter;stroke-opacity:1;font-family:Arial"
       id="text18722" />
    <path
       d="M 294.05469,372.16406 L 274.92969,374.27344 C 274.46088,370.33602 273.24214,367.42977 271.27344,365.55469 C 269.30464,363.67977 266.74995,362.74227 263.60938,362.74219 C 259.43746,362.74227 255.8984,364.61727 252.99219,368.36719 C 250.13278,372.11727 248.3281,379.92195 247.57812,391.78125 C 252.49997,385.96881 258.61715,383.06257 265.92969,383.0625 C 274.17963,383.06257 281.23431,386.20319 287.09375,392.48438 C 292.99993,398.76568 295.95305,406.87504 295.95312,416.8125 C 295.95305,427.3594 292.8593,435.82033 286.67188,442.19531 C 280.48432,448.57031 272.53901,451.75781 262.83594,451.75781 C 252.42966,451.75781 243.87498,447.72656 237.17188,439.66406 C 230.46874,431.55471 227.11718,418.28909 227.11719,399.86719 C 227.11718,380.97663 230.60937,367.35946 237.59375,359.01562 C 244.5781,350.67197 253.6484,346.5001 264.80469,346.5 C 272.63276,346.5001 279.1015,348.70323 284.21094,353.10938 C 289.36712,357.46884 292.64837,363.8204 294.05469,372.16406 M 249.26562,415.26562 C 249.2656,421.68753 250.74216,426.65627 253.69531,430.17188 C 256.6484,433.64064 260.0234,435.37501 263.82031,435.375 C 267.47652,435.37501 270.52339,433.94533 272.96094,431.08594 C 275.39838,428.22658 276.61713,423.53909 276.61719,417.02344 C 276.61713,410.32035 275.30463,405.42192 272.67969,402.32812 C 270.05464,399.18755 266.77339,397.61724 262.83594,397.61719 C 259.03902,397.61724 255.82809,399.11724 253.20312,402.11719 C 250.5781,405.07036 249.2656,409.45317 249.26562,415.26562"
       style="font-size:144px;font-style:normal;font-weight:bold;fill:#000000;fill-opacity:1;stroke:none;stroke-width:1px;stroke-linecap:butt;stroke-linejoin:miter;stroke-opacity:1;font-family:Arial"
       id="text18726" />
    <path
       d="M 59.117188,367.67969 L 59.117188,349.32812 L 126.6875,349.32812 L 126.6875,363.67188 C 121.10931,369.15633 115.43744,377.03132 109.67188,387.29688 C 103.9062,397.56255 99.499954,408.48442 96.453125,420.0625 C 93.453085,431.59377 91.976524,441.90626 92.023438,451 L 72.96875,451 C 73.296855,436.75001 76.226539,422.21878 81.757812,407.40625 C 87.335903,392.59381 94.765583,379.35163 104.04688,367.67969 L 59.117188,367.67969"
       style="font-size:144px;font-style:normal;font-weight:bold;fill:#000000;fill-opacity:1;stroke:none;stroke-width:1px;stroke-linecap:butt;stroke-linejoin:miter;stroke-opacity:1;font-family:Arial"
       id="text18730" />
    <path
       d="M 163.0625,549.38281 C 157.95311,547.22662 154.22655,544.2735 151.88281,540.52344 C 149.58593,536.72663 148.43749,532.5782 148.4375,528.07812 C 148.43749,520.39071 151.10936,514.03915 156.45312,509.02344 C 161.84373,504.00791 169.48435,501.5001 179.375,501.5 C 189.17183,501.5001 196.76557,504.00791 202.15625,509.02344 C 207.59368,514.03915 210.31243,520.39071 210.3125,528.07812 C 210.31243,532.85945 209.07024,537.12507 206.58594,540.875 C 204.1015,544.57819 200.60931,547.41412 196.10938,549.38281 C 201.82806,551.67974 206.164,555.0313 209.11719,559.4375 C 212.11712,563.84379 213.61711,568.92972 213.61719,574.69531 C 213.61711,584.21096 210.57024,591.94533 204.47656,597.89844 C 198.42963,603.85156 190.36714,606.82812 180.28906,606.82812 C 170.91403,606.82812 163.10935,604.36719 156.875,599.44531 C 149.51562,593.63282 145.83593,585.66408 145.83594,575.53906 C 145.83593,569.96097 147.21874,564.8516 149.98438,560.21094 C 152.74999,555.52349 157.10936,551.91412 163.0625,549.38281 M 167.14062,529.48438 C 167.1406,533.42195 168.24216,536.49226 170.44531,538.69531 C 172.69528,540.8985 175.67184,542.00006 179.375,542 C 183.12496,542.00006 186.12495,540.8985 188.375,538.69531 C 190.62495,536.44538 191.74995,533.35163 191.75,529.41406 C 191.74995,525.71102 190.62495,522.75789 188.375,520.55469 C 186.17183,518.30477 183.24214,517.17978 179.58594,517.17969 C 175.78903,517.17978 172.76559,518.30477 170.51562,520.55469 C 168.2656,522.80477 167.1406,525.78133 167.14062,529.48438 M 165.3125,573.64062 C 165.31247,579.07815 166.69529,583.32033 169.46094,586.36719 C 172.27341,589.41408 175.76559,590.93751 179.9375,590.9375 C 184.01558,590.93751 187.39058,589.48439 190.0625,586.57812 C 192.73432,583.62502 194.07026,579.38284 194.07031,573.85156 C 194.07026,569.02347 192.71088,565.15629 189.99219,562.25 C 187.27339,559.29692 183.82808,557.82036 179.65625,557.82031 C 174.82809,557.82036 171.21872,559.48442 168.82812,562.8125 C 166.48435,566.14066 165.31247,569.75004 165.3125,573.64062"
       style="font-size:144px;font-style:normal;font-weight:bold;fill:#000000;fill-opacity:1;stroke:none;stroke-width:1px;stroke-linecap:butt;stroke-linejoin:miter;stroke-opacity:1;font-family:Arial"
       id="text18734" />
    <path
       d="M 478,59.5 C 478,81.867532 444.86907,100 404,100 C 363.13093,100 330,81.867532 330,59.5 C 330,37.132468 363.13093,19 404,19 C 444.86907,19 478,37.132468 478,59.5 z "
       transform="translate(1,-3.5)"
       style="fill:#000000;fill-opacity:0;stroke:#000000;stroke-width:2.01314735;stroke-miterlimit:4;stroke-dasharray:none;stroke-opacity:1"
       id="path18755" />
    <path
       d="M 411,146 C 411,160.91169 384.5848,173 352,173 C 319.4152,173 293,160.91169 293,146 C 293,131.08831 319.4152,119 352,119 C 384.5848,119 411,131.08831 411,146 z "
       transform="translate(3,1)"
       style="fill:#000000;fill-opacity:0;stroke:#000000;stroke-width:2;stroke-miterlimit:4;stroke-dasharray:none;stroke-opacity:1"
       id="path18757" />
    <path
       d="M 112,81 C 112,114.68937 92.972102,142 69.5,142 C 46.027898,142 27,114.68937 27,81 C 27,47.31063 46.027898,20 69.5,20 C 92.972102,20 112,47.31063 112,81 L 112,81 z "
       style="fill:#000000;fill-opacity:0;stroke:#000000;stroke-width:2.07797503;stroke-miterlimit:4;stroke-dasharray:none;stroke-opacity:1"
       id="path18759" />
    <path
       d="M 412.03906,75 L 404.35547,75 L 404.35547,46.042969 C 401.54817,48.667995 398.23958,50.609399 394.42969,51.867188 L 394.42969,44.894531 C 396.43489,44.238312 398.61327,42.99873 400.96484,41.175781 C 403.31639,39.334671 404.92967,37.192746 405.80469,34.75 L 412.03906,34.75 L 412.03906,75"
       style="font-size:56px;font-style:normal;font-weight:bold;fill:#000000;fill-opacity:1;stroke:none;stroke-width:1px;stroke-linecap:butt;stroke-linejoin:miter;stroke-opacity:1;font-family:Arial"
       id="text21692" />
    <path
       d="M 368.32812,157.86328 L 368.32812,165 L 341.39453,165 C 341.6862,162.30209 342.5612,159.75001 344.01953,157.34375 C 345.47786,154.91928 348.35806,151.71095 352.66016,147.71875 C 356.12368,144.49221 358.24738,142.30471 359.03125,141.15625 C 360.08852,139.57034 360.61717,138.00263 360.61719,136.45312 C 360.61717,134.73961 360.15232,133.42711 359.22266,132.51562 C 358.31118,131.58597 357.04425,131.12113 355.42188,131.12109 C 353.81769,131.12113 352.54165,131.6042 351.59375,132.57031 C 350.64582,133.53649 350.09895,135.14065 349.95312,137.38281 L 342.29688,136.61719 C 342.7526,132.38805 344.18359,129.3529 346.58984,127.51172 C 348.99608,125.67061 352.00389,124.75004 355.61328,124.75 C 359.56899,124.75004 362.67706,125.81645 364.9375,127.94922 C 367.19789,130.08207 368.3281,132.73441 368.32812,135.90625 C 368.3281,137.71096 367.99997,139.43362 367.34375,141.07422 C 366.7057,142.69664 365.68487,144.40106 364.28125,146.1875 C 363.35154,147.37241 361.67446,149.07684 359.25,151.30078 C 356.8255,153.52475 355.28514,155.00131 354.62891,155.73047 C 353.99087,156.45964 353.47134,157.17058 353.07031,157.86328 L 368.32812,157.86328"
       style="font-size:56px;font-style:normal;font-weight:bold;fill:#000000;fill-opacity:1;stroke:none;stroke-width:1px;stroke-linecap:butt;stroke-linejoin:miter;stroke-opacity:1;font-family:Arial"
       id="text21696" />
    <path
       d="M 57.105469,89.363281 L 64.542969,88.460938 C 64.779938,90.35678 65.417958,91.805998 66.457031,92.808594 C 67.496081,93.811204 68.753892,94.312506 70.230469,94.3125 C 71.816389,94.312506 73.147117,93.710944 74.222656,92.507812 C 75.316386,91.304696 75.86326,89.682302 75.863281,87.640625 C 75.86326,85.708348 75.34373,84.177099 74.304688,83.046875 C 73.265607,81.916685 71.998681,81.351581 70.503906,81.351562 C 69.519517,81.351581 68.343737,81.542987 66.976562,81.925781 L 67.824219,75.664062 C 69.902329,75.718774 71.488265,75.27216 72.582031,74.324219 C 73.675763,73.3581 74.222637,72.082059 74.222656,70.496094 C 74.222637,69.147166 73.821596,68.071647 73.019531,67.269531 C 72.217431,66.467481 71.151026,66.06644 69.820312,66.066406 C 68.507799,66.06644 67.386706,66.522169 66.457031,67.433594 C 65.527333,68.345084 64.96223,69.675812 64.761719,71.425781 L 57.679688,70.222656 C 58.171872,67.798209 58.910152,65.86592 59.894531,64.425781 C 60.89713,62.967485 62.282545,61.828163 64.050781,61.007812 C 65.837229,60.169311 67.83332,59.75004 70.039062,59.75 C 73.812481,59.75004 76.83852,60.953164 79.117188,63.359375 C 80.994766,65.32816 81.933567,67.552116 81.933594,70.03125 C 81.933567,73.549506 80.010392,76.356794 76.164062,78.453125 C 78.460914,78.945334 80.292943,80.048197 81.660156,81.761719 C 83.045545,83.475277 83.738253,85.544285 83.738281,87.96875 C 83.738253,91.486988 82.453098,94.485683 79.882812,96.964844 C 77.312478,99.444011 74.113262,100.68359 70.285156,100.68359 C 66.65754,100.68359 63.649731,99.644532 61.261719,97.566406 C 58.873694,95.470057 57.488279,92.735684 57.105469,89.363281"
       style="font-size:56px;font-style:normal;font-weight:bold;fill:#000000;fill-opacity:1;stroke:none;stroke-width:1px;stroke-linecap:butt;stroke-linejoin:miter;stroke-opacity:1;font-family:Arial"
       id="text21700" />
  </g>
</svg>
